<?xml version="1.0" encoding="utf-8"?>
<!-- Generator: Adobe Illustrator 23.0.1, SVG Export Plug-In . SVG Version: 6.00 Build 0)  -->
<svg version="1.1" id="Layer_1" xmlns="http://www.w3.org/2000/svg" xmlns:xlink="http://www.w3.org/1999/xlink" x="0px" y="0px"
	 viewBox="0 0 700 700" style="enable-background:new 0 0 700 700;" xml:space="preserve">
<path d="M281.4,321h125.8c4.5,0,8.2-3.7,8.2-8.2s-3.7-8.2-8.2-8.2H281.4c-4.5,0-8.2,3.7-8.2,8.2S276.9,321,281.4,321z M281.4,386.6
	h109.4c4.5,0,8.2-3.7,8.2-8.2s-3.7-8.2-8.2-8.2H281.4c-4.5,0-8.2,3.7-8.2,8.2S276.9,386.6,281.4,386.6z M281.4,255.4h125.8
	c4.5,0,8.2-3.7,8.2-8.2s-3.7-8.2-8.2-8.2H281.4c-4.5,0-8.2,3.7-8.2,8.2S276.9,255.4,281.4,255.4z M311.5,49.4c3.3,0,6.3-2,7.6-5.1
	c1.3-3.1,0.6-6.6-1.8-8.9c-2.3-2.3-5.9-3-8.9-1.8c-3.1,1.3-5.1,4.3-5.1,7.6C303.3,45.7,307,49.4,311.5,49.4L311.5,49.4z
	 M281.4,189.8h125.8c4.5,0,8.2-3.7,8.2-8.2s-3.7-8.2-8.2-8.2H281.4c-4.5,0-8.2,3.7-8.2,8.2S276.9,189.8,281.4,189.8z M215.8,468.7
	c6.5,0,12.8-2.6,17.4-7.2c4.6-4.6,7.2-10.9,7.2-17.4s-2.6-12.8-7.2-17.4c-4.6-4.6-10.9-7.2-17.4-7.2s-12.8,2.6-17.4,7.2
	c-4.6,4.6-7.2,10.9-7.2,17.4c0,6.5,2.6,12.8,7.2,17.4C203,466.1,209.3,468.7,215.8,468.7L215.8,468.7z M215.8,435.9
	c3.3,0,6.3,2,7.6,5.1c1.3,3.1,0.6,6.6-1.8,8.9c-2.3,2.3-5.9,3-8.9,1.8c-3.1-1.3-5.1-4.3-5.1-7.6
	C207.6,439.5,211.3,435.9,215.8,435.9L215.8,435.9z M215.8,206.2c6.5,0,12.8-2.6,17.4-7.2c4.6-4.6,7.2-10.9,7.2-17.4
	s-2.6-12.8-7.2-17.4c-4.6-4.6-10.9-7.2-17.4-7.2s-12.8,2.6-17.4,7.2c-4.6,4.6-7.2,10.9-7.2,17.4c0,6.5,2.6,12.8,7.2,17.4
	C203,203.6,209.3,206.2,215.8,206.2L215.8,206.2z M215.8,173.4c3.3,0,6.3,2,7.6,5.1c1.3,3.1,0.6,6.6-1.8,8.9c-2.3,2.3-5.9,3-8.9,1.8
	c-3.1-1.3-5.1-4.3-5.1-7.6C207.6,177,211.3,173.4,215.8,173.4L215.8,173.4z M590.4,147.5c-1.8-6.3-6.1-11.5-11.8-14.7
	c-5.7-3.1-12.5-3.9-18.7-2c-6.3,1.8-11.5,6.1-14.7,11.8l-8.9,16.3l-21.9,39.9v-92.1c0-10.9-4.3-21.3-12-29c-7.7-7.7-18.1-12-29-12
	h-76.7c-5.6-6.8-14-10.7-22.8-10.7h-10c0.2-3.5,0-7.1-0.6-10.5c-2.9-17.4-14.4-32.2-30.6-39.4c-16.2-7.1-34.8-5.7-49.7,3.9
	c-14.8,9.6-23.9,26-24.1,43.6c0,0.8,0,1.6,0.1,2.4h-10c-8.8,0-17.2,3.9-22.8,10.7h-76.7c-10.9,0-21.3,4.3-29,12
	c-7.7,7.7-12,18.1-12,29V519c0,10.9,4.3,21.3,12,29c7.7,7.7,18.1,12,29,12h323.8c10.9,0,21.3-4.3,29-12c7.7-7.7,12-18.1,12-29V301.2
	l74-134.9C591.5,160.5,592.3,153.8,590.4,147.5L590.4,147.5z M473.4,82c6.5,0,12.8,2.6,17.4,7.2c4.6,4.6,7.2,10.9,7.2,17.4v122.1
	l-33.4,60.9V123c0-2.2-0.9-4.3-2.4-5.8c-1.5-1.5-3.6-2.4-5.8-2.4h-52.8V84.6c0-0.9,0-1.7-0.1-2.5L473.4,82z M235.9,84.6
	c0-7.3,6-13.3,13.3-13.3h19.4c2.5,0,4.9-1.2,6.5-3.1c1.6-2,2.1-4.6,1.5-7c-1.6-6.3-1.4-12.9,0.5-19.1c1.9-6.2,5.4-11.8,10.2-16.2
	c7.5-6.9,17.6-10.2,27.7-9.2c10.4,1,19.9,6.6,25.9,15.1c6,8.5,8.1,19.3,5.6,29.4c-0.6,2.4,0,5,1.5,7c1.6,2,3.9,3.1,6.5,3.1h19.4
	c3.5,0,6.9,1.4,9.4,3.9c2.5,2.5,3.9,5.9,3.9,9.4v31.5c0,7.3-6,13.3-13.3,13.3H249.2c-7.3,0-13.3-6-13.3-13.3L235.9,84.6z
	 M249.2,145.8h124.7c10.5,0,20.2-5.5,25.6-14.6h48.8v188.3l-38.1,69.6c-0.2,0.4-0.3,0.7-0.5,1.1c0,0.1-0.1,0.1-0.1,0.2
	c-0.1,0.4-0.2,0.7-0.3,1.1l-8.1,44.4H281.4c-4.5,0-8.2,3.7-8.2,8.2s3.7,8.2,8.2,8.2H408c2.1,0,4.1-0.8,5.6-2.2l34.6-32.1v76.4H174.8
	V131.3h48.8C229,140.3,238.7,145.8,249.2,145.8L249.2,145.8z M423.3,405.7l8.8,4.8l-11.6,10.8L423.3,405.7z M498,519
	c0,6.5-2.6,12.8-7.2,17.4c-4.6,4.6-10.9,7.2-17.4,7.2H149.6c-6.5,0-12.8-2.6-17.4-7.2S125,525.5,125,519V106.6
	c0-6.5,2.6-12.8,7.2-17.4c4.6-4.6,10.9-7.2,17.4-7.2h70c-0.1,0.8-0.1,1.7-0.1,2.5v30.3h-52.9c-4.5,0-8.2,3.7-8.2,8.2v379.5
	c0,4.5,3.7,8.2,8.2,8.2h289.8c2.2,0,4.3-0.9,5.8-2.4c1.5-1.5,2.4-3.6,2.4-5.8V392l33.4-60.9L498,519z M499,295.2l-56.2,102.5
	l-14.4-7.9l35.1-64.1h0c0-0.1,0.1-0.1,0.1-0.2l49.7-90.6l0.1-0.2l33.3-60.7l14.4,7.9L499,295.2z M574,158.3l-5,9.1l-14.4-7.9l5-9.1
	c1-2,2.8-3.5,4.9-4.1c2.1-0.7,4.4-0.4,6.4,0.6s3.4,2.9,4,5C575.4,154.1,575.1,156.4,574,158.3L574,158.3z M215.8,403
	c6.5,0,12.8-2.6,17.4-7.2c4.6-4.6,7.2-10.9,7.2-17.4s-2.6-12.8-7.2-17.4c-4.6-4.6-10.9-7.2-17.4-7.2s-12.8,2.6-17.4,7.2
	c-4.6,4.6-7.2,10.9-7.2,17.4c0,6.5,2.6,12.8,7.2,17.4C203,400.4,209.3,403,215.8,403L215.8,403z M215.8,370.2c3.3,0,6.3,2,7.6,5.1
	c1.3,3.1,0.6,6.6-1.8,8.9c-2.3,2.3-5.9,3-8.9,1.8c-3.1-1.3-5.1-4.3-5.1-7.6C207.6,373.9,211.3,370.2,215.8,370.2L215.8,370.2z
	 M215.8,337.4c6.5,0,12.8-2.6,17.4-7.2c4.6-4.6,7.2-10.9,7.2-17.4s-2.6-12.8-7.2-17.4c-4.6-4.6-10.9-7.2-17.4-7.2
	s-12.8,2.6-17.4,7.2c-4.6,4.6-7.2,10.9-7.2,17.4c0,6.5,2.6,12.8,7.2,17.4C203,334.8,209.3,337.4,215.8,337.4L215.8,337.4z
	 M215.8,304.6c3.3,0,6.3,2,7.6,5.1c1.3,3.1,0.6,6.6-1.8,8.9c-2.3,2.3-5.9,3-8.9,1.8c-3.1-1.3-5.1-4.3-5.1-7.6
	C207.6,308.3,211.3,304.6,215.8,304.6L215.8,304.6z M215.8,271.8c6.5,0,12.8-2.6,17.4-7.2c4.6-4.6,7.2-10.9,7.2-17.4
	s-2.6-12.8-7.2-17.4c-4.6-4.6-10.9-7.2-17.4-7.2s-12.8,2.6-17.4,7.2c-4.6,4.6-7.2,10.9-7.2,17.4c0,6.5,2.6,12.8,7.2,17.4
	C203,269.2,209.3,271.8,215.8,271.8L215.8,271.8z M215.8,239c3.3,0,6.3,2,7.6,5.1c1.3,3.1,0.6,6.6-1.8,8.9c-2.3,2.3-5.9,3-8.9,1.8
	c-3.1-1.3-5.1-4.3-5.1-7.6C207.6,242.7,211.3,239,215.8,239L215.8,239z"/>
</svg>
