<?xml version="1.0" encoding="utf-8"?>
<!-- Generator: Adobe Illustrator 23.0.1, SVG Export Plug-In . SVG Version: 6.00 Build 0)  -->
<svg version="1.1" id="Layer_1" xmlns="http://www.w3.org/2000/svg" xmlns:xlink="http://www.w3.org/1999/xlink" x="0px" y="0px"
	 viewBox="0 0 700 700" style="enable-background:new 0 0 700 700;" xml:space="preserve">
<g>
	<path d="M218.8,262.5h17.5V245h17.5v-17.5h-17.5V210h-17.5v17.5h-17.5V245h17.5V262.5z"/>
	<path d="M422.6,440.1l35-35l12.4,12.4l-35,35L422.6,440.1z"/>
	<path d="M422.6,492.6l87.5-87.5l12.4,12.4l-87.5,87.5L422.6,492.6z"/>
	<path d="M475.1,492.6l35-35l12.4,12.4l-35,35L475.1,492.6z"/>
	<path d="M603.8,78.8h-210c-4.8,0-8.8,3.9-8.8,8.8v183.8c0,2.3,0.9,4.5,2.6,6.2s3.9,2.6,6.2,2.6H420v17.5h-70v-140h8.8
		c3.6,0,6.8-2.2,8.1-5.5c1.3-3.3,0.5-7.2-2.2-9.6L233.5,19.9c-3.4-3.1-8.6-3.1-11.9,0L90.3,142.4c-2.6,2.4-3.5,6.3-2.2,9.6
		s4.5,5.5,8.1,5.5h8.8v376.3c0,2.3,0.9,4.5,2.6,6.2s3.9,2.6,6.2,2.6h490c2.3,0,4.5-0.9,6.2-2.6s2.6-3.9,2.6-6.2V306.3
		c0-2.3-0.9-4.5-2.6-6.2s-3.9-2.6-6.2-2.6h-26.3V280h26.3c2.3,0,4.5-0.9,6.2-2.6s2.6-3.9,2.6-6.2V87.5c0-2.3-0.9-4.5-2.6-6.2
		S606.1,78.8,603.8,78.8L603.8,78.8z M332.5,332.5H315v-140h17.5V332.5z M297.5,280h-140v-87.5h140V280z M297.5,297.5v35h-140v-35
		H297.5z M140,332.5h-17.5v-140H140V332.5z M122.5,350h210v17.5h-210V350z M227.5,38.2l109,101.8H118.4L227.5,38.2z M332.5,157.5
		V175h-210v-17.5H332.5z M122.5,385h210v140H315V411.3c0-2.3-0.9-4.5-2.6-6.2s-3.9-2.6-6.2-2.6H148.8c-4.8,0-8.8,3.9-8.8,8.8V525
		h-17.5V385z M157.5,420h35v105h-35V420z M210,420h35v105h-35V420z M262.5,525V420h35v105H262.5z M385,525V385h175v140H385z
		 M577.5,525V376.3c0-2.3-0.9-4.5-2.6-6.2s-3.9-2.6-6.2-2.6H376.3c-4.8,0-8.8,3.9-8.8,8.8V525H350V350h245v175H577.5z M595,332.5
		H350V315h245V332.5z M560,297.5H437.5V280H560V297.5z M595,262.5H402.5V96.3H595V262.5z"/>
	<path d="M455,209.1v9.6c0,7,2.8,13.6,7.7,18.6s11.6,7.7,18.6,7.7h52.5c7,0,13.6-2.8,18.6-7.7s7.7-11.6,7.7-18.6v-54.1
		c7.8-2.8,13.9-9.1,16.4-17.1c2.4-8,1-16.6-4-23.3c-5-6.7-12.8-10.6-21.1-10.6s-16.2,3.9-21.1,10.6c-4.9,6.7-6.4,15.3-4,23.3
		c2.4,8,8.5,14.3,16.4,17.1v54.1c0,2.3-0.9,4.5-2.6,6.2s-3.9,2.6-6.2,2.6h-52.5c-4.8,0-8.8-3.9-8.8-8.8v-9.6
		c9.9-2,18.8-7.4,25.1-15.2c6.4-7.8,9.9-17.6,9.9-27.7V140c0-7-2.8-13.6-7.7-18.6s-11.6-7.7-18.6-7.7h-8.8v17.5h8.8
		c2.3,0,4.5,0.9,6.2,2.6s2.6,3.9,2.6,6.2v26.3c0,9.4-5,18-13.1,22.7c-8.1,4.7-18.1,4.7-26.3,0c-8.1-4.7-13.1-13.4-13.1-22.7V140
		c0-4.8,3.9-8.8,8.8-8.8h8.8v-17.5h-8.8c-7,0-13.6,2.8-18.6,7.7S420,133,420,140v26.3c0,10.1,3.5,19.9,9.9,27.7
		C436.3,201.7,445.1,207.1,455,209.1L455,209.1z M551.3,131.2c3.5,0,6.7,2.1,8.1,5.4c1.4,3.3,0.6,7-1.9,9.5s-6.3,3.3-9.5,1.9
		c-3.3-1.4-5.4-4.5-5.4-8.1C542.5,135.2,546.4,131.2,551.3,131.2z"/>
</g>
</svg>
