<?xml version="1.0" encoding="utf-8"?>
<!-- Generator: Adobe Illustrator 23.0.1, SVG Export Plug-In . SVG Version: 6.00 Build 0)  -->
<svg version="1.1" id="Layer_1" xmlns="http://www.w3.org/2000/svg" xmlns:xlink="http://www.w3.org/1999/xlink" x="0px" y="0px"
	 viewBox="0 0 700 700" style="enable-background:new 0 0 700 700;" xml:space="preserve">
<style type="text/css">
	.st0{fill-rule:evenodd;clip-rule:evenodd;}
</style>
<path class="st0" d="M320.5,46.7c19.9,0,37.5,13.1,43.8,32.6c0.9,2.9,3.7,4.9,6.7,4.9h35.3c5.3,0,9.2,3.9,9.2,8.9v37
	c0,5.1-3.9,9-9.2,9l-171.7,0c-5.3,0-9.1-3.9-9.1-9v-37c0-5.1,3.9-8.9,9.1-8.9h35.3c3.1,0,5.8-2,6.7-4.9
	C283,59.8,300.6,46.7,320.5,46.7L320.5,46.7z M320.5,32.6c-24,0-44.2,15.6-53.7,37.5h-92.3c-19.8,0-36.8,14.8-36.8,33.8v390
	c0,19,16.9,33.8,36.8,33.8l292.1,0c19.9,0,36.8-14.8,36.8-33.8v-31.9c0.4-9.8-14.5-9.8-14.1,0v31.9c0,10.6-9.6,19.7-22.7,19.7
	l-292.1,0c-13,0-22.7-9.1-22.7-19.7v-390c0-10.6,9.6-19.6,22.7-19.6h38.8c-1.2,2.8-1.8,5.8-1.8,8.9v37c0,12.7,10.5,23.1,23.2,23.1
	h171.7c12.7,0,23.3-10.4,23.3-23.1v-37c0-3.2-0.6-6.2-1.8-8.9h38.8c13.1,0,22.7,9,22.7,19.6v58.3c-0.4,9.9,14.5,9.9,14.1,0v-58.3
	c0-19-16.9-33.8-36.8-33.8h-92.4C364.6,48.1,344.4,32.6,320.5,32.6L320.5,32.6z"/>
<path class="st0" d="M320.5,80.5c7.2,0,13.1,5.9,13.1,13.7c0,7.7-5.9,13.6-13.1,13.6s-13-5.9-13-13.6
	C307.4,86.4,313.3,80.5,320.5,80.5z M320.5,66.4c-15,0-27.2,12.6-27.2,27.8c0,15.2,12.1,27.7,27.2,27.7c15,0,27.2-12.6,27.2-27.7
	C347.6,79,335.5,66.4,320.5,66.4z"/>
<path class="st0" d="M431,266.4c12.9,0,23.6,10.9,23.6,25c0,8.4-4,16.2-10.5,20.7c-2.3,1.6-3.4,4.6-2.8,7.4l9,38.4h-38.7l9-38.4
	c0.6-2.8-0.5-5.7-2.8-7.4c-6.5-4.6-10.4-12.4-10.5-20.7C407.4,277.3,418.1,266.4,431,266.4L431,266.4z M431,252.3
	c-20.9,0-37.7,17.7-37.7,39.1c0,10.4,6.3,18.9,13.3,26.2l-8.9,38.3c-1.9,8.2,3.9,16.1,12.5,16.1h41.7c8.6,0,14.4-7.9,12.5-16.1
	l-9-38.3c7-7.3,13.3-15.8,13.3-26.2C468.7,270,451.9,252.3,431,252.3L431,252.3z"/>
<path d="M431,189.6l117.4,40.8v41.9c0,91.8-46.3,145.8-117.4,184.4C360,418.1,313.6,364,313.6,272.3v-41.9L431,189.6z M428.7,175.5
	l-124.5,43.3c-2.8,1-4.7,3.7-4.7,6.6v47c0,98.2,52.3,158.9,128.2,199c2,1.1,4.5,1.1,6.6,0c75.8-40.1,128.2-100.9,128.2-199v-47
	c0-3-1.9-5.7-4.7-6.6l-124.4-43.3C431.6,174.8,430.1,175,428.7,175.5L428.7,175.5z"/>
<path d="M193.3,218.3c-9.8,0-9.8,14.1,0,14.1h75c9.8,0,9.8-14.1,0-14.1L193.3,218.3z"/>
<path d="M192.6,260.8c-9.4,0.1-8.7,14.1,0.7,14.1h75c9.8,0,9.8-14.2,0-14.1C243.1,261,217.8,260.5,192.6,260.8L192.6,260.8z"/>
<path d="M193.3,303.2c-9.8,0-9.8,14.1,0,14.1h75c9.8,0,9.8-14.1,0-14.1H193.3z"/>
<path d="M192.6,345.7c-9.4,0.1-8.7,14.1,0.7,14.1h75c9.8,0,9.8-14.2,0-14.1C243.1,346,217.8,345.4,192.6,345.7L192.6,345.7z"/>
<path d="M193.3,388.1c-9.4,0-9.4,14.2,0,14.2h105.9c9.4,0,9.4-14.2,0-14.2H193.3L193.3,388.1z"/>
<path d="M193.3,430.6c-9.8,0-9.8,14.1,0,14.1h126.8c9.8,0,9.8-14.1,0-14.1H193.3z"/>
</svg>
