<?xml version="1.0" encoding="utf-8"?>
<!-- Generator: Adobe Illustrator 23.0.1, SVG Export Plug-In . SVG Version: 6.00 Build 0)  -->
<svg version="1.1" id="Layer_1" xmlns="http://www.w3.org/2000/svg" xmlns:xlink="http://www.w3.org/1999/xlink" x="0px" y="0px"
	 viewBox="0 0 700 700" style="enable-background:new 0 0 700 700;" xml:space="preserve">
<path d="M189.9,436.8c0.2,13.6,5.7,26.6,15.4,36.1c9.7,9.6,22.7,14.9,36.3,14.9h275.6c0.3,0,0.6,0,0.9,0h3.5
	c18.5,0,35.5-9.9,44.8-25.9c9.2-16,9.2-35.7,0-51.7c-9.2-16-26.3-25.9-44.8-25.9h-40.5V123.8c0-13.7-5.5-26.8-15.2-36.5
	c-9.7-9.7-22.8-15.1-36.5-15.2H175.1c-0.4,0-0.8,0-1.1,0c-17.3,1.5-32.7,11.6-41,27c-8.3,15.3-8.3,33.8,0,49.1s23.7,25.4,41,27
	c0.4,0,0.7,0,1.1,0h14.8L189.9,436.8z M521.6,395.8L521.6,395.8c10.7,0,21,4.3,28.6,11.9c7.6,7.6,11.9,17.9,11.9,28.6
	s-4.3,21-11.9,28.6c-7.6,7.6-17.9,11.9-28.6,11.9c-10.7,0-21-4.3-28.6-11.9c-7.6-7.6-11.9-17.9-11.9-28.6v-40.6L521.6,395.8z
	 M137.9,123.8c0-10.7,4.3-21,11.9-28.6c7.6-7.6,17.9-11.9,28.6-11.9h219c-12.4,9.8-19.7,24.7-19.7,40.5s7.2,30.7,19.7,40.5H178.4
	c-10.8,0-21.1-4.3-28.7-11.9C142.1,144.8,137.9,134.5,137.9,123.8L137.9,123.8z M429.1,175.4c3.1,0,5.6-2.5,5.6-5.6
	s-2.5-5.6-5.6-5.6c-10.7,0-21-4.3-28.6-11.9c-7.6-7.6-11.9-17.9-11.9-28.6s4.3-21,11.9-28.6c7.6-7.6,17.9-11.9,28.6-11.9
	s21,4.3,28.6,11.9c7.6,7.6,11.9,17.9,11.9,28.6v313c0.2,15.6,7.4,30.2,19.7,39.9H241.6c-10.7,0-21-4.3-28.6-11.9
	s-11.9-17.9-11.9-28.6V175.5L429.1,175.4z"/>
<path d="M228.6,242.6h56v11.2h-56V242.6z"/>
<path d="M301.5,242.6h134.4v11.2H301.5V242.6z"/>
<path d="M228.6,309.9h56V321h-56V309.9z"/>
<path d="M301.5,309.9h134.4V321H301.5V309.9z"/>
<path d="M228.6,377h56v11.2h-56V377z"/>
<path d="M301.5,377h134.4v11.2H301.5V377z"/>
</svg>
