<?xml version="1.0" encoding="utf-8"?>
<!-- Generator: Adobe Illustrator 23.0.1, SVG Export Plug-In . SVG Version: 6.00 Build 0)  -->
<svg version="1.1" id="Layer_1" xmlns="http://www.w3.org/2000/svg" xmlns:xlink="http://www.w3.org/1999/xlink" x="0px" y="0px"
	 viewBox="0 0 700 700" style="enable-background:new 0 0 700 700;" xml:space="preserve">
<path d="M344.4,89.1l-4.3,2.7h0c-3.1,2-4.5,5.8-3.5,9.3c1,3.5,4.2,6,7.8,6.1c1.6,0,3.2-0.4,4.5-1.3l4.3-2.7l0,0
	c2.2-1,3.9-2.9,4.6-5.2c0.7-2.3,0.4-4.8-0.9-6.9c-1.3-2.1-3.4-3.4-5.8-3.8C348.7,86.9,346.3,87.6,344.4,89.1L344.4,89.1z"/>
<path d="M487.4,185.9c-0.3-4.4-4-7.8-8.3-7.8h-56.9c29.8-18.9,44.8-46.4,42-78.4c-0.7-11.9-6.7-22.8-16.4-29.8
	c-23.7-17.5-65.9-10.7-74.4-9.1c-13.1-1.1-26.3-0.2-39.2,2.6c-8.9,1.1-16.7,6.1-21.4,13.7c-2.2,4.1-3.1,8.8-2.5,13.5
	c-6,10.2-6.7,22.6-1.8,33.3c3.2,6.4,12,16.8,33.6,13.6v0c22.2-2.7,42.1-14.8,54.7-33.3c5.2-1.4,10.8-0.9,15.7,1.2
	c0.4,0.3,1.3,1,0.7,4.1c-3.3,17.8-29.2,38-69.4,54c-10.7,4.2-21.2,9-31.4,14.4h-89.6h0c-1.7-0.5-3.5-0.4-5.2,0.3
	c-4.3,1.6-6.5,6.5-4.9,10.8c9.9,24.3,27.4,44.8,49.8,58.4c2.6,28,40.8,44.3,67.8,52.1v9.9c-12.8,6.4-25.8,17.1-25.8,36.2
	s12.7,30.1,25.8,35.8v5.6c-11.2,8-22.4,17.6-23.6,25.4h0c-0.7,3.3,0.1,6.7,2.1,9.3c3.9,3.6,9.1,5.3,14.3,4.6c2.5-0.1,5-0.4,7.4-0.8
	v22.8v0c-12,10.5-25.3,19.4-39.6,26.5l-8.6,4.7v0c-2.8,1.6-4.4,4.6-4.3,7.7c0.2,3.2,2.1,6,5,7.3c13.4,5.9,33.1,7.1,67.2,7.1
	c34.1,0,53.4-1.1,66.9-7.1h0c3-1.3,4.9-4.1,5.1-7.3c0.1-3.2-1.6-6.2-4.5-7.7l-6.3-3c-15.2-7.4-29.3-16.8-41.9-28v-34.7
	c14.1-8,21.6-18.8,21.6-31.2c0-9.6-3.9-23-21.6-34.3v-7.2c17.5-8.8,36.3-22,36.3-38.3s-10.7-26.4-23.7-33.6
	c49.1-9.1,89-38.9,104.7-79.3v0c0.4-1,0.6-2.1,0.6-3.1C487.6,186.8,487.4,186.1,487.4,185.9L487.4,185.9z M234.4,194.9h53
	c-10.7,8.7-18.5,20.4-22.4,33.6C252.5,219.6,242,208.1,234.4,194.9L234.4,194.9z M279.2,244.5c0.2-26.1,20.4-45.1,70.8-65.3
	c46.9-18.8,75.2-42.4,79.7-66.6v0c1.2-4.7,0.6-9.7-1.6-14c-2.2-4.3-5.9-7.7-10.4-9.5c-9.9-4.2-28.6-3.2-33.6,3.6l-0.7,1l0,0
	c-9.9,15-25.9,24.9-43.7,27.1c-8.7,1.2-14.3-0.3-16.5-4.6c-2.3-5.9-1.5-12.6,2-17.9c2.2-2.3,3-5.7,1.9-8.7c-0.4-1.5-0.3-3,0.4-4.4
	c2.5-3,6.1-4.9,10-5.3c11.4-2.6,23.2-3.4,34.8-2.4c1,0.2,2,0.2,3,0c11.8-2.5,45.9-6.3,62.4,5.9c5.8,4.2,9.3,10.7,9.6,17.8
	c4.1,45.4-36.5,66.8-61.1,75.5c-33.6,11.9-90,35.7-90,61c0,18.1,20.2,26,34.3,31.2v13c-26.3-8.4-51.2-21.8-51.2-37.6L279.2,244.5z
	 M347.4,350.6l5.6-2V370h-1.8c0,0-1.6,0-3.5-0.6L347.4,350.6z M350.1,485c-16.8,0-29.9-0.3-40.2-1.3v0c12.7-6.9,24.5-15.5,34.9-25.5
	c0.8-0.7,1.4-1.6,1.9-2.6c0.4-0.9,0.6-1.9,0.6-2.9v-29.7l5.6-1.5v31.2c0,1.1,0.2,2.1,0.6,3.1c0.4,1,1.1,1.9,1.8,2.7
	c10.3,10,22,18.6,34.7,25.5c-10.4,0.7-23.3,1-40.1,1L350.1,485z M374.4,382.5L374.4,382.5c-0.3,5.5-3.3,10.5-8,13.3
	c-2.6,2-5.5,3.7-8.5,5.2c-6.5,3.1-13.4,5.3-20.5,6.7c-2.7,0.6-5.6,1-7.7,1.3c4.5-3.8,9.1-7.3,13.9-10.6l0.4-0.3
	c3.4-2.3,6.9-4.6,10.5-6.8c2.9-1.8,6.1-3.4,9.3-4.6c0.8-0.3,1.6-0.8,2.4-1.3h0.3c0.6-0.6,1.2-1.2,1.7-1.9V383
	c0.4-0.8,0.8-1.6,0.9-2.5c0-0.5,0-1,0-1.5v-8.9c3.2,3.4,5,7.8,5.2,12.4L374.4,382.5z M358,327.9L358,327.9c-6.9,3.3-14,6.1-21.3,8.5
	h-0.3l-0.8,0.4l-0.7,0.4l-0.7,0.4l-0.7,0.5l-0.5,0.6v0c-0.2,0.2-0.4,0.4-0.5,0.7l-0.4,0.7c-0.1,0.2-0.3,0.4-0.4,0.7
	c0,0.3,0,0.5,0,0.8c0,0,0,0.5-0.3,0.8v0c0,0.2,0,0.5,0,0.7c0,0.3,0,0.6,0,0.9v18.2c-5.6-3.7-9-10.1-9-16.8c0-15.3,15.1-21.7,32-27.3
	c7.8-2.6,14.6-4.9,15.7-11.2c0.1-0.6,0.1-1.3,0-1.9v-23.5c13.3,6.7,19.5,13.6,19.5,21.5S374.4,320.3,358,328L358,327.9z
	 M360.6,254.8h-1.4l-0.8,0.3h-0.7l-0.7,0.4l-0.7,0.4l-0.7,0.6l-0.5,0.5l-0.6,0.7l0,0c-0.2,0.2-0.3,0.4-0.4,0.6
	c-0.2,0.2-0.3,0.5-0.4,0.8l-0.3,0.7c0,0,0,0.6-0.3,0.8v0.7c0,0.3,0,0.6,0,0.9c0,0.2,0,0.4,0,0.6v37.9l-4.5,1.6l-0.8,0.3v-39.2
	c0-0.4,0-0.7,0-1.1c0-0.2,0-0.4,0-0.6c0-0.3,0-0.6,0-0.9c0-0.2,0-0.4,0-0.7c0,0,0-0.5-0.4-0.7s0-0.4-0.4-0.7v0
	c-0.2-0.2-0.4-0.5-0.6-0.7l-0.4-0.5l-0.7-0.6l-0.6-0.4l-0.7-0.4l-0.8-0.4l-4.2-1.6c-9.2-3.4-24.7-9.1-24.7-16
	c0-7.9,27.7-26.2,72.8-42.9h80.1C447.1,228.2,406.6,252,360.6,254.8L360.6,254.8z"/>
</svg>
