<?xml version="1.0" encoding="utf-8"?>
<!-- Generator: Adobe Illustrator 23.0.1, SVG Export Plug-In . SVG Version: 6.00 Build 0)  -->
<svg version="1.1" id="Layer_1" xmlns="http://www.w3.org/2000/svg" xmlns:xlink="http://www.w3.org/1999/xlink" x="0px" y="0px"
	 viewBox="0 0 700 700" style="enable-background:new 0 0 700 700;" xml:space="preserve">
<g>
	<path d="M521.5,359.3c0,12.2-9.9,22.1-22.1,22.1c-12.2,0-22.1-9.9-22.1-22.1s9.9-22.1,22.1-22.1C511.6,337.1,521.5,347,521.5,359.3
		"/>
	<path d="M399.4,332.7c0,8.4-6.8,15.3-15.3,15.3c-8.4,0-15.3-6.8-15.3-15.3s6.8-15.3,15.3-15.3C392.6,317.4,399.4,324.3,399.4,332.7
		"/>
	<path d="M515.8,38.7c0,8.4-6.8,15.3-15.3,15.3s-15.3-6.8-15.3-15.3c0-8.4,6.8-15.3,15.3-15.3S515.8,30.2,515.8,38.7"/>
	<path d="M459.1,322.9c0,5.4-4.4,9.8-9.8,9.8c-5.4,0-9.8-4.4-9.8-9.8c0-5.4,4.4-9.8,9.8-9.8C454.7,313.2,459.1,317.5,459.1,322.9"/>
	<path d="M450.8,59.5c0,5.4-4.4,9.8-9.8,9.8s-9.8-4.4-9.8-9.8c0-5.4,4.4-9.8,9.8-9.8S450.8,54.1,450.8,59.5"/>
	<path d="M214.8,305.5c0,12.2-9.9,22.1-22.1,22.1s-22.1-9.9-22.1-22.1c0-12.2,9.9-22.1,22.1-22.1S214.8,293.3,214.8,305.5"/>
	<path d="M214.8,231.4c0,8.4-6.8,15.3-15.3,15.3c-8.4,0-15.3-6.8-15.3-15.3s6.8-15.3,15.3-15.3C207.9,216.1,214.8,223,214.8,231.4"
		/>
	<path d="M193.9,176.4c0,5.4-4.4,9.8-9.8,9.8c-5.4,0-9.8-4.4-9.8-9.8c0-5.4,4.4-9.8,9.8-9.8C189.6,166.7,193.9,171.1,193.9,176.4"/>
	<path d="M241.5,79.8h-92c-20.4,0-37,16.6-37,37c0,15.4,9.5,28.7,23,34.2v205.8c0,7.7,6.3,14,14,14c30,0,49.9,0,49.9,0h0
		c7.7,0,14-6.3,14-14c0-7.7-6.3-14-14-14c0,0-13.9,0-35.9,0V139.8c0-7.7-6.3-14-14-14c-5,0-9-4-9-9s4-9,9-9h92c5,0,9,4,9,9s-4,9-9,9
		h-42.1c-7.7,0-14,6.3-14,14s6.3,14,14,14h28.1v322.9c0,17.6-14.3,32-32,32c-17.6,0-32-14.3-32-32l0-75.6c0-7.7-6.3-14-14-14
		s-14,6.3-14,14v75.6c0,33.1,26.9,60,60,60c33.1,0,60-26.9,60-60l0-325.7c13.5-5.5,23-18.8,23-34.2
		C278.5,96.4,261.9,79.8,241.5,79.8L241.5,79.8z"/>
	<path d="M361,370.8L361,370.8c-7.7,0-14,6.3-14,14c0,7.7,6.3,14,14,14c1.3,0,2.7,0,4.1,0.1c0.2,0,0.5,0,0.7,0
		c7.4,0,13.6-5.8,14-13.3c0.4-7.7-5.6-14.3-13.3-14.7C364.6,370.8,362.8,370.8,361,370.8L361,370.8z"/>
	<path d="M580.5,394.9c-5.5-3.2-12.4-2.4-16.9,2.1c-12.8,12.5-28.4,17.4-49.2,15.2c-20.4-2.2-42.7-10.5-66.3-19.3
		c-11.9-4.5-24.2-9.1-36.4-12.9c-7.4-2.3-15.2,1.8-17.5,9.2s1.8,15.2,9.2,17.5c11.4,3.6,23.3,8,34.9,12.3
		c24.2,9.1,49.3,18.4,73.2,21c14.4,1.5,27.4,0.5,39.1-3.2c-18.6,42.6-61.4,71.9-109.8,71.9c-60.3,0-111.3-45-118.8-104.7
		c-0.6-5-0.9-10-0.9-15c0-50,31.5-95.2,78.4-112.4c5.5-2,9.2-7.3,9.2-13.1l0-121.6c0.1-0.7,0.2-1.3,0.2-2c0-7.7-6.3-14-14-14
		c-5,0-9-4-9-9s4-9,9-9h92c5,0,9,4,9,9s-4,9-9,9h-46c-7.7,0-14,6.3-14,14s6.3,14,14,14h31.9l0.3,109.6c0,5.9,3.7,11.1,9.2,13.1
		c38.3,14.1,66.5,46.2,75.5,85.9c1.5,6.5,7.2,10.9,13.6,10.9c1,0,2.1-0.1,3.1-0.3c7.5-1.7,12.3-9.2,10.6-16.7
		c-5.4-24-16.9-46.5-33.3-65c-14-15.9-31.4-28.7-50.7-37.3L500.7,151c13.5-5.5,23.1-18.8,23.1-34.3c0-20.4-16.6-37-37-37h-92
		c-20.4,0-37,16.6-37,37c0,15.4,9.4,28.6,22.8,34.2v103c-24.2,10.8-44.9,27.7-60.4,49.5c-17.8,25.1-27.2,54.6-27.2,85.5
		c0,6.2,0.4,12.4,1.2,18.5c9.2,73.7,72.2,129.2,146.6,129.2c36,0,70.7-13.1,97.6-36.9c26.7-23.5,44-55.7,48.8-90.8
		C588.1,403.4,585.5,397.8,580.5,394.9L580.5,394.9z"/>
</g>
</svg>
